<svg xmlns="http://www.w3.org/2000/svg" viewBox="0 0 45.88 48.99"><defs><style>.cls-1,.cls-2{fill:none;stroke:#443515;stroke-miterlimit:10;}.cls-1{stroke-width:3px;}.cls-2{stroke-width:2px;}</style></defs><g id="Layer_2" data-name="Layer 2"><g id="Layer_1-2" data-name="Layer 1"><path class="cls-1" d="M41.65,18.6c.6,1.06,5.83,10.85,0,19.69a19.94,19.94,0,0,1-7.48,6.56,25.21,25.21,0,0,1-22.46,0,19.94,19.94,0,0,1-7.48-6.56c-5.83-8.84-.6-18.63,0-19.69M3,19.2H42.57"/><path class="cls-1" d="M18,18.6Q15.86,2,18,1.51T27.37,18.6"/><path class="cls-2" d="M8.59,19.37a39,39,0,0,0,0,9.2A37.17,37.17,0,0,0,16.07,47"/><path class="cls-2" d="M17.09,18.6a41.34,41.34,0,0,0,0,9.47,38.88,38.88,0,0,0,7.48,19"/><path class="cls-2" d="M25.35,18.6a33.33,33.33,0,0,0,8,26.37"/><path class="cls-2" d="M34.59,18.6a21.82,21.82,0,0,0,0,6.87,24.89,24.89,0,0,0,7.48,13.75"/><line class="cls-2" x1="1.98" y1="26.5" x2="43.37" y2="26.5"/><line class="cls-2" x1="2.1" y1="33.16" x2="43.49" y2="33.16"/><line class="cls-2" x1="6" y1="40.07" x2="39.36" y2="40.07"/></g></g></svg>